<svg width="189" height="72" viewBox="0 0 189 72" fill="none" xmlns="http://www.w3.org/2000/svg">
<g filter="url(#filter0_d_114_2)">
<path d="M56.6665 28.9601V0H64.585L61.0245 24.8876L76.3773 23.6432V28.9601H56.6665Z" fill="white"/>
<path d="M71.2893 6.33503V0H96.6399V6.33503L85.1467 5.59971L87.8669 28.9601H80.0623L81.6147 5.59971L71.2893 6.33503Z" fill="white"/>
<path d="M97.4214 28.9601V0H105.34V11.7085L114.512 0H123.74L113.885 12.8963L123.968 28.9601H114.512L107.96 18.1001L105.516 18.0435L105.34 28.9601H97.4214Z" fill="white"/>
<path d="M126.09 28.9601V0H134.009L130.582 22.6251H145.801V28.9601H126.09Z" fill="white"/>
<path d="M21.9804 40.9514C21.8095 39.5185 21.1164 38.4061 19.9011 37.6142C18.6858 36.8223 17.1951 36.4264 15.4291 36.4264C14.1379 36.4264 13.008 36.6338 12.0395 37.0486C11.0806 37.4634 10.3305 38.0337 9.78933 38.7596C9.25763 39.4855 8.99178 40.3104 8.99178 41.2342C8.99178 42.0073 9.17693 42.6719 9.54722 43.2281C9.927 43.7748 10.4112 44.2321 10.9999 44.5997C11.5886 44.9579 12.2057 45.2549 12.8513 45.4906C13.497 45.7168 14.0904 45.9007 14.6316 46.0421L17.5939 46.8339C18.3534 47.0319 19.1985 47.3053 20.1289 47.6541C21.0689 48.0029 21.9661 48.479 22.8207 49.0823C23.6847 49.6762 24.3968 50.4398 24.9569 51.3731C25.5171 52.3064 25.7972 53.4518 25.7972 54.8093C25.7972 56.3742 25.3842 57.7882 24.5582 59.0515C23.7416 60.3147 22.5453 61.3187 20.9692 62.0634C19.4026 62.8082 17.4989 63.1806 15.2582 63.1806C13.1694 63.1806 11.3607 62.8459 9.83205 62.1766C8.31292 61.5072 7.1166 60.574 6.2431 59.3767C5.37909 58.1795 4.89012 56.789 4.77618 55.2052H8.42211C8.51705 56.2988 8.88734 57.2038 9.53297 57.9202C10.1881 58.6273 11.0141 59.1552 12.0111 59.504C13.0175 59.8434 14.0999 60.0131 15.2582 60.0131C16.6064 60.0131 17.817 59.7962 18.8899 59.3626C19.9628 58.9195 20.8125 58.3067 21.4392 57.5243C22.0658 56.7324 22.3792 55.8086 22.3792 54.7527C22.3792 53.7912 22.1086 53.0087 21.5674 52.4054C21.0262 51.802 20.3141 51.3118 19.4311 50.9347C18.5481 50.5577 17.5939 50.2277 16.5685 49.9449L12.9795 48.9268C10.7008 48.2763 8.89684 47.3477 7.56759 46.141C6.23835 44.9344 5.57373 43.3553 5.57373 41.4039C5.57373 39.7824 6.01523 38.3684 6.89823 37.1617C7.79072 35.9456 8.98703 35.0029 10.4872 34.3336C11.9968 33.6548 13.6821 33.3154 15.543 33.3154C17.423 33.3154 19.094 33.6501 20.5562 34.3194C22.0184 34.9793 23.1767 35.8843 24.0312 37.0344C24.8952 38.1846 25.351 39.4902 25.3984 40.9514H21.9804Z" fill="white"/>
<path d="M38.3443 63.4068C36.3694 63.4068 34.6367 62.9402 33.146 62.0069C31.6649 61.0736 30.5065 59.7679 29.671 58.0899C28.845 56.4119 28.432 54.451 28.432 52.2074C28.432 49.9449 28.845 47.9699 29.671 46.2824C30.5065 44.595 31.6649 43.2846 33.146 42.3513C34.6367 41.4181 36.3694 40.9514 38.3443 40.9514C40.3192 40.9514 42.0472 41.4181 43.5284 42.3513C45.019 43.2846 46.1773 44.595 47.0034 46.2824C47.8389 47.9699 48.2567 49.9449 48.2567 52.2074C48.2567 54.451 47.8389 56.4119 47.0034 58.0899C46.1773 59.7679 45.019 61.0736 43.5284 62.0069C42.0472 62.9402 40.3192 63.4068 38.3443 63.4068ZM38.3443 60.409C39.8445 60.409 41.0788 60.0272 42.0472 59.2636C43.0156 58.5 43.7325 57.496 44.1977 56.2516C44.663 55.0073 44.8956 53.6592 44.8956 52.2074C44.8956 50.7556 44.663 49.4028 44.1977 48.149C43.7325 46.8952 43.0156 45.8818 42.0472 45.1088C41.0788 44.3357 39.8445 43.9492 38.3443 43.9492C36.8442 43.9492 35.6099 44.3357 34.6414 45.1088C33.673 45.8818 32.9561 46.8952 32.4909 48.149C32.0257 49.4028 31.793 50.7556 31.793 52.2074C31.793 53.6592 32.0257 55.0073 32.4909 56.2516C32.9561 57.496 33.673 58.5 34.6414 59.2636C35.6099 60.0272 36.8442 60.409 38.3443 60.409Z" fill="white"/>
<path d="M60.0489 40.9514V43.7795H48.2567V40.9514H60.0489ZM51.7886 62.6715V37.9536C51.7886 36.7092 52.083 35.6722 52.6716 34.8426C53.2603 34.0131 54.0246 33.3909 54.9646 32.9761C55.9045 32.5613 56.8967 32.3539 57.9411 32.3539C58.7672 32.3539 59.4413 32.4199 59.9635 32.5519C60.4857 32.6838 60.875 32.8064 61.1313 32.9195L60.1629 35.8042C59.992 35.7476 59.7546 35.6769 59.4508 35.5921C59.1565 35.5073 58.7672 35.4648 58.2829 35.4648C57.1721 35.4648 56.3698 35.7429 55.8761 36.2991C55.3918 36.8553 55.1497 37.6708 55.1497 38.7455V62.6715H51.7886Z" fill="white"/>
<path d="M74.273 40.9514V43.7795H62.9365V40.9514H74.273ZM66.2406 35.7476H69.6017V56.4496C69.6017 57.3923 69.7394 58.0993 70.0147 58.5707C70.2995 59.0326 70.6603 59.3437 71.0971 59.504C71.5433 59.6548 72.0133 59.7302 72.507 59.7302C72.8773 59.7302 73.1811 59.7114 73.4185 59.6737C73.6559 59.6265 73.8458 59.5888 73.9882 59.5606L74.6718 62.5584C74.4439 62.6432 74.1259 62.7281 73.7176 62.8129C73.3093 62.9072 72.7919 62.9543 72.1652 62.9543C71.2158 62.9543 70.2853 62.7516 69.3738 62.3463C68.4718 61.9409 67.7218 61.3234 67.1236 60.4938C66.5349 59.6642 66.2406 58.6178 66.2406 57.3546V35.7476Z" fill="white"/>
<path d="M84.2851 62.6715L77.6199 40.9514H81.1519L85.8802 57.5809H86.108L91.495 44.4724H93.4266L98.9827 57.5243H99.2106L103.939 40.9514H107.471L100.806 62.6715H97.5016L92.1217 50.1146V50.5105L87.5892 62.6715H84.2851Z" fill="white"/>
<path d="M118.352 63.1806C116.965 63.1806 115.707 62.9213 114.578 62.4028C113.448 61.8749 112.55 61.116 111.886 60.1262C111.221 59.1269 110.889 57.9202 110.889 56.5062C110.889 55.2618 111.136 54.2531 111.63 53.4801C112.123 52.6976 112.783 52.0848 113.609 51.6418C114.435 51.1987 115.347 50.8687 116.344 50.6519C117.35 50.4257 118.361 50.2466 119.377 50.1146C120.706 49.9449 121.784 49.8176 122.61 49.7328C123.446 49.6385 124.053 49.483 124.433 49.2661C124.822 49.0493 125.017 48.6722 125.017 48.1349V48.0218C125.017 46.6265 124.632 45.5424 123.863 44.7694C123.104 43.9964 121.95 43.6099 120.403 43.6099C118.798 43.6099 117.54 43.9587 116.628 44.6563C115.717 45.3539 115.076 46.0986 114.706 46.8905L111.516 45.7592C112.085 44.4394 112.845 43.4119 113.794 42.6766C114.753 41.9318 115.798 41.4133 116.927 41.1211C118.067 40.8194 119.187 40.6686 120.289 40.6686C120.991 40.6686 121.798 40.7534 122.71 40.9231C123.631 41.0834 124.518 41.4181 125.373 41.9271C126.237 42.4362 126.954 43.2045 127.523 44.2321C128.093 45.2596 128.378 46.636 128.378 48.3611V62.6715H125.017V59.7302H124.846C124.618 60.2016 124.238 60.7059 123.707 61.2433C123.175 61.7806 122.468 62.2379 121.585 62.6149C120.702 62.992 119.624 63.1806 118.352 63.1806ZM118.864 60.1827C120.194 60.1827 121.314 59.9235 122.225 59.405C123.146 58.8865 123.84 58.2172 124.305 57.397C124.78 56.5769 125.017 55.7143 125.017 54.8093V51.7549C124.874 51.9246 124.561 52.0801 124.077 52.2215C123.602 52.3535 123.052 52.4714 122.425 52.5751C121.808 52.6693 121.205 52.7542 120.616 52.8296C120.037 52.8956 119.567 52.9521 119.206 52.9993C118.333 53.1124 117.516 53.2962 116.757 53.5508C116.007 53.7959 115.399 54.1682 114.934 54.6679C114.478 55.1581 114.25 55.8274 114.25 56.6758C114.25 57.8354 114.682 58.7121 115.546 59.306C116.42 59.8905 117.526 60.1827 118.864 60.1827Z" fill="white"/>
<path d="M134.513 62.6715V40.9514H137.76V44.2321H137.988C138.386 43.1574 139.108 42.2854 140.152 41.616C141.197 40.9467 142.374 40.612 143.684 40.612C143.931 40.612 144.24 40.6167 144.61 40.6262C144.98 40.6356 145.261 40.6497 145.45 40.6686V44.0624C145.337 44.0341 145.075 43.9917 144.667 43.9351C144.268 43.8691 143.846 43.8361 143.4 43.8361C142.336 43.8361 141.387 44.0577 140.551 44.5007C139.725 44.9344 139.07 45.5377 138.586 46.3107C138.111 47.0743 137.874 47.9463 137.874 48.9268V62.6715H134.513Z" fill="white"/>
<path d="M155.998 62.4028C153.891 62.4028 152.072 61.9409 150.544 61.017C149.025 60.0838 147.852 58.7828 147.026 57.1142C146.209 55.4362 145.801 53.4848 145.801 51.26C145.801 49.0352 146.209 47.0743 147.026 45.3774C147.852 43.6711 149.001 42.3419 150.472 41.3898C151.954 40.4282 153.682 39.9474 155.657 39.9474C156.796 39.9474 157.921 40.136 159.032 40.5131C160.143 40.8901 161.154 41.5029 162.065 42.3513C162.977 43.1904 163.703 44.3028 164.244 45.6885C164.786 47.0743 165.056 48.7806 165.056 50.8075V52.2215L155.998 52.1084V49.3368H161.638C161.638 48.1113 161.391 47.0178 160.898 46.0562C160.413 45.0946 159.72 44.3358 158.818 43.7796C157.926 43.2234 156.872 42.9453 155.657 42.9453C154.318 42.9453 153.159 43.2752 152.181 43.9351C151.213 44.5856 150.468 45.434 149.946 46.4804C149.423 47.5268 149.162 48.6487 149.162 49.8459V51.769C149.162 53.4094 149.447 54.7999 150.017 55.9405C150.596 57.0718 151.398 57.9344 152.424 58.5283C153.449 59.1128 154.641 59.405 155.998 59.405C156.881 59.405 157.679 59.2825 158.391 59.0373C159.113 58.7828 159.734 58.4057 160.257 57.9061C160.779 57.397 161.182 56.7654 161.467 56.0112L164.714 56.9162C164.373 58.0098 163.798 58.9714 162.991 59.8009C162.184 60.6211 161.187 61.2621 160 61.7241C158.813 62.1766 157.479 62.4028 155.998 62.4028Z" fill="white"/>
<path d="M183.647 45.0946L180.628 45.9431C180.438 45.4434 180.158 44.9579 179.788 44.4866C179.427 44.0058 178.933 43.6099 178.306 43.2988C177.68 42.9877 176.878 42.8321 175.9 42.8321C174.561 42.8321 173.445 43.1385 172.553 43.7513C171.67 44.3546 171.228 45.1229 171.228 46.0562C171.228 46.8858 171.532 47.541 172.14 48.0218C172.747 48.5025 173.697 48.9032 174.988 49.2237L178.235 50.0156C180.191 50.4869 181.649 51.2081 182.608 52.1791C183.566 53.1407 184.046 54.3803 184.046 55.8981C184.046 57.1425 183.685 58.2549 182.964 59.2353C182.251 60.2157 181.255 60.9888 179.973 61.5544C178.691 62.12 177.2 62.4028 175.501 62.4028C173.27 62.4028 171.423 61.922 169.961 60.9605C168.499 59.9989 167.573 58.5943 167.184 56.7466L170.374 55.9547C170.678 57.1236 171.252 58.0004 172.097 58.5848C172.951 59.1693 174.067 59.4616 175.444 59.4616C177.01 59.4616 178.254 59.1316 179.175 58.4717C180.106 57.8024 180.571 57.0011 180.571 56.0678C180.571 55.3136 180.305 54.682 179.773 54.173C179.242 53.6545 178.425 53.2679 177.324 53.0134L173.678 52.165C171.674 51.6936 170.203 50.963 169.263 49.9732C168.332 48.9739 167.867 47.7248 167.867 46.2259C167.867 45.0004 168.214 43.9162 168.907 42.9735C169.609 42.0308 170.564 41.2908 171.769 40.7534C172.985 40.2161 174.361 39.9474 175.9 39.9474C178.064 39.9474 179.764 40.4188 180.998 41.3615C182.242 42.3042 183.125 43.5486 183.647 45.0946Z" fill="white"/>
</g>
<defs>
<filter id="filter0_d_114_2" x="0.776184" y="0" width="187.27" height="71.4067" filterUnits="userSpaceOnUse" color-interpolation-filters="sRGB">
<feFlood flood-opacity="0" result="BackgroundImageFix"/>
<feColorMatrix in="SourceAlpha" type="matrix" values="0 0 0 0 0 0 0 0 0 0 0 0 0 0 0 0 0 0 127 0" result="hardAlpha"/>
<feOffset dy="4"/>
<feGaussianBlur stdDeviation="2"/>
<feComposite in2="hardAlpha" operator="out"/>
<feColorMatrix type="matrix" values="0 0 0 0 0.63125 0 0 0 0 0.841667 0 0 0 0 0.677541 0 0 0 0.25 0"/>
<feBlend mode="normal" in2="BackgroundImageFix" result="effect1_dropShadow_114_2"/>
<feBlend mode="normal" in="SourceGraphic" in2="effect1_dropShadow_114_2" result="shape"/>
</filter>
</defs>
</svg>
