<svg width="152" height="61" viewBox="0 0 152 61" fill="none" xmlns="http://www.w3.org/2000/svg">
<g filter="url(#filter0_d_50_127)">
<path d="M45.4606 22.6483V0H51.6943L48.8914 19.4634L60.9776 18.4902V22.6483H45.4606Z" fill="#2E7C80"/>
<path d="M56.9723 4.95432V0H76.9291V4.95432L67.8813 4.37926L70.0227 22.6483H63.8787L65.1007 4.37926L56.9723 4.95432Z" fill="#2E7C80"/>
<path d="M77.5443 22.6483V0H83.778V9.15663L90.9984 0H98.2636L90.5051 10.0856L98.4429 22.6483H90.9984L85.841 14.1552L83.9168 14.1109L83.778 22.6483H77.5443Z" fill="#2E7C80"/>
<path d="M100.113 22.6483V0H106.347L103.649 17.694H115.63V22.6483H100.113Z" fill="#2E7C80"/>
<path d="M18.1546 32.0261C18.02 30.9055 17.4744 30.0355 16.5177 29.4162C15.5609 28.797 14.3874 28.4873 12.9972 28.4873C11.9807 28.4873 11.0912 28.6495 10.3288 28.9739C9.57388 29.2983 8.9834 29.7443 8.55736 30.312C8.13879 30.8797 7.9295 31.5248 7.9295 32.2473C7.9295 32.8518 8.07525 33.3716 8.36676 33.8066C8.66574 34.2342 9.04694 34.5917 9.51035 34.8793C9.97377 35.1594 10.4596 35.3916 10.9679 35.576C11.4761 35.7529 11.9433 35.8967 12.3693 36.0073L14.7014 36.6265C15.2993 36.7814 15.9646 36.9952 16.6971 37.2679C17.437 37.5407 18.1434 37.913 18.8161 38.3849C19.4962 38.8493 20.0568 39.4465 20.4978 40.1764C20.9388 40.9063 21.1593 41.802 21.1593 42.8637C21.1593 44.0875 20.8342 45.1934 20.1839 46.1813C19.5411 47.1692 18.5993 47.9544 17.3585 48.5368C16.1253 49.1192 14.6266 49.4104 12.8626 49.4104C11.2183 49.4104 9.79438 49.1487 8.59099 48.6253C7.39508 48.1018 6.4533 47.3719 5.76564 46.4356C5.08547 45.4993 4.70053 44.4119 4.61084 43.1733H7.48103C7.55578 44.0285 7.84728 44.7363 8.35555 45.2966C8.87128 45.8495 9.52156 46.2624 10.3064 46.5352C11.0987 46.8006 11.9508 46.9333 12.8626 46.9333C13.924 46.9333 14.877 46.7637 15.7216 46.4246C16.5662 46.0781 17.2352 45.5989 17.7285 44.9869C18.2218 44.3677 18.4685 43.6452 18.4685 42.8194C18.4685 42.0674 18.2555 41.4555 17.8294 40.9837C17.4034 40.5118 16.8428 40.1285 16.1477 39.8336C15.4526 39.5387 14.7014 39.2806 13.8941 39.0595L11.0688 38.2632C9.27491 37.7545 7.85476 37.0283 6.80833 36.0847C5.76191 35.141 5.23869 33.9061 5.23869 32.38C5.23869 31.1119 5.58626 30.006 6.28138 29.0624C6.98398 28.1113 7.92577 27.3741 9.10673 26.8506C10.2952 26.3198 11.6219 26.0544 13.0869 26.0544C14.5668 26.0544 15.8823 26.3161 17.0334 26.8396C18.1845 27.3556 19.0964 28.0634 19.7691 28.9628C20.4492 29.8623 20.808 30.8834 20.8454 32.0261H18.1546Z" fill="#2E7C80"/>
<path d="M31.0368 49.5874C29.4821 49.5874 28.118 49.2224 26.9445 48.4926C25.7785 47.7627 24.8666 46.7416 24.2089 45.4293C23.5586 44.117 23.2335 42.5835 23.2335 40.8289C23.2335 39.0595 23.5586 37.5149 24.2089 36.1952C24.8666 34.8756 25.7785 33.8508 26.9445 33.1209C28.118 32.391 29.4821 32.0261 31.0368 32.0261C32.5915 32.0261 33.9518 32.391 35.1179 33.1209C36.2914 33.8508 37.2032 34.8756 37.8535 36.1952C38.5113 37.5149 38.8401 39.0595 38.8401 40.8289C38.8401 42.5835 38.5113 44.117 37.8535 45.4293C37.2032 46.7416 36.2914 47.7627 35.1179 48.4926C33.9518 49.2224 32.5915 49.5874 31.0368 49.5874ZM31.0368 47.2429C32.2178 47.2429 33.1895 46.9443 33.9519 46.3472C34.7142 45.75 35.2786 44.9648 35.6448 43.9917C36.0111 43.0185 36.1942 41.9642 36.1942 40.8289C36.1942 39.6935 36.0111 38.6355 35.6448 37.655C35.2786 36.6745 34.7142 35.8819 33.9519 35.2774C33.1895 34.6728 32.2178 34.3706 31.0368 34.3706C29.8558 34.3706 28.8842 34.6728 28.1218 35.2774C27.3594 35.8819 26.7951 36.6745 26.4288 37.655C26.0626 38.6355 25.8794 39.6935 25.8794 40.8289C25.8794 41.9642 26.0626 43.0185 26.4288 43.9917C26.7951 44.9648 27.3594 45.75 28.1218 46.3472C28.8842 46.9443 29.8558 47.2429 31.0368 47.2429Z" fill="#2E7C80"/>
<path d="M48.1234 32.0261V34.2379H38.8401V32.0261H48.1234ZM41.6207 49.0123V29.6817C41.6207 28.7085 41.8524 27.8975 42.3158 27.2487C42.7792 26.5999 43.3809 26.1134 44.1209 25.789C44.8608 25.4646 45.6419 25.3024 46.4641 25.3024C47.1144 25.3024 47.6451 25.354 48.0562 25.4572C48.4673 25.5604 48.7737 25.6563 48.9755 25.7447L48.2131 28.0007C48.0786 27.9565 47.8917 27.9012 47.6525 27.8348C47.4208 27.7685 47.1144 27.7353 46.7332 27.7353C45.8587 27.7353 45.2271 27.9528 44.8384 28.3878C44.4572 28.8228 44.2666 29.4605 44.2666 30.3009V49.0123H41.6207Z" fill="#2E7C80"/>
<path d="M59.3211 32.0261V34.2379H50.3966V32.0261H59.3211ZM52.9977 27.9565H55.6437V44.1465C55.6437 44.8837 55.7521 45.4367 55.9688 45.8053C56.1931 46.1665 56.4771 46.4098 56.8209 46.5352C57.1722 46.6531 57.5422 46.7121 57.9309 46.7121C58.2224 46.7121 58.4616 46.6974 58.6484 46.6679C58.8353 46.631 58.9848 46.6015 59.0969 46.5794L59.635 48.9239C59.4557 48.9902 59.2053 49.0566 58.8839 49.1229C58.5625 49.1966 58.1551 49.2335 57.6618 49.2335C56.9143 49.2335 56.1818 49.075 55.4643 48.758C54.7542 48.441 54.1637 47.9581 53.6928 47.3093C53.2294 46.6605 52.9977 45.8422 52.9977 44.8542V27.9565Z" fill="#2E7C80"/>
<path d="M67.203 49.0123L61.9559 32.0261H64.7364L68.4587 45.0312H68.6381L72.8789 34.7797H74.3995L78.7734 44.9869H78.9528L82.6751 32.0261H85.4556L80.2085 49.0123H77.6074L73.3722 39.1922V39.5018L69.8041 49.0123H67.203Z" fill="#2E7C80"/>
<path d="M94.0213 49.4104C92.9301 49.4104 91.9397 49.2077 91.0502 48.8022C90.1608 48.3894 89.4544 47.7959 88.9312 47.0218C88.408 46.2403 88.1464 45.2966 88.1464 44.1907C88.1464 43.2175 88.3407 42.4287 88.7294 41.8241C89.1181 41.2122 89.6376 40.733 90.2878 40.3865C90.9381 40.04 91.6557 39.782 92.4405 39.6124C93.2328 39.4355 94.0288 39.2954 94.8286 39.1922C95.875 39.0595 96.7234 38.9599 97.3736 38.8936C98.0314 38.8199 98.5098 38.6982 98.8087 38.5286C99.1152 38.3591 99.2684 38.0642 99.2684 37.6439V37.5555C99.2684 36.4643 98.9657 35.6165 98.3603 35.012C97.7623 34.4074 96.8542 34.1051 95.6358 34.1051C94.3726 34.1051 93.3823 34.3779 92.6647 34.9235C91.9472 35.4691 91.4426 36.0515 91.1511 36.6708L88.6397 35.7861C89.0882 34.7539 89.6861 33.9503 90.4336 33.3753C91.1885 32.7928 92.0107 32.3874 92.9002 32.1588C93.7971 31.9229 94.6791 31.8049 95.5461 31.8049C96.0992 31.8049 96.7346 31.8713 97.4521 32.004C98.1771 32.1293 98.876 32.391 99.5487 32.7892C100.229 33.1873 100.793 33.7881 101.242 34.5917C101.69 35.3953 101.914 36.4717 101.914 37.8209V49.0123H99.2684V46.7121H99.1339C98.9545 47.0807 98.6555 47.4752 98.2369 47.8954C97.8184 48.3156 97.2615 48.6732 96.5664 48.9681C95.8713 49.263 95.0229 49.4104 94.0213 49.4104ZM94.425 47.066C95.4714 47.066 96.3534 46.8632 97.0709 46.4578C97.7959 46.0523 98.3416 45.5288 98.7078 44.8874C99.0816 44.246 99.2684 43.5714 99.2684 42.8637V40.475C99.1563 40.6077 98.9096 40.7293 98.5284 40.8399C98.1547 40.9431 97.7212 41.0353 97.2279 41.1164C96.742 41.1901 96.2674 41.2565 95.804 41.3154C95.3481 41.3671 94.9781 41.4113 94.694 41.4481C94.0064 41.5366 93.3636 41.6804 92.7656 41.8794C92.1751 42.0711 91.6968 42.3623 91.3305 42.7531C90.9718 43.1364 90.7924 43.6599 90.7924 44.3234C90.7924 45.2302 91.1325 45.9159 91.8126 46.3803C92.5003 46.8374 93.3711 47.066 94.425 47.066Z" fill="#2E7C80"/>
<path d="M106.744 49.0123V32.0261H109.3V34.5917H109.479C109.793 33.7513 110.361 33.0693 111.184 32.5459C112.006 32.0224 112.933 31.7607 113.964 31.7607C114.158 31.7607 114.401 31.7644 114.693 31.7718C114.984 31.7791 115.205 31.7902 115.354 31.8049V34.459C115.265 34.4369 115.059 34.4037 114.738 34.3595C114.424 34.3079 114.091 34.2821 113.74 34.2821C112.903 34.2821 112.155 34.4553 111.498 34.8018C110.847 35.141 110.332 35.6128 109.95 36.2174C109.577 36.8145 109.39 37.4965 109.39 38.2632V49.0123H106.744Z" fill="#2E7C80"/>
<path d="M123.658 48.8022C121.999 48.8022 120.567 48.441 119.364 47.7185C118.168 46.9886 117.245 45.9712 116.595 44.6662C115.952 43.3539 115.63 41.8278 115.63 40.0879C115.63 38.348 115.952 36.8145 116.595 35.4875C117.245 34.1531 118.149 33.1135 119.308 32.3689C120.474 31.6169 121.834 31.2409 123.389 31.2409C124.286 31.2409 125.172 31.3884 126.046 31.6833C126.921 31.9782 127.717 32.4574 128.434 33.1209C129.152 33.7771 129.724 34.647 130.15 35.7308C130.576 36.8145 130.789 38.149 130.789 39.734V40.8399L123.658 40.7514V38.5839H128.098C128.098 37.6255 127.904 36.7703 127.515 36.0183C127.134 35.2663 126.588 34.6728 125.878 34.2379C125.175 33.8029 124.346 33.5854 123.389 33.5854C122.335 33.5854 121.423 33.8434 120.653 34.3595C119.891 34.8682 119.304 35.5317 118.893 36.3501C118.482 37.1684 118.276 38.0457 118.276 38.9821V40.486C118.276 41.7689 118.501 42.8563 118.949 43.7484C119.405 44.6331 120.037 45.3077 120.844 45.7721C121.651 46.2292 122.589 46.4578 123.658 46.4578C124.353 46.4578 124.981 46.3619 125.542 46.1702C126.11 45.9712 126.599 45.6763 127.01 45.2855C127.421 44.8874 127.739 44.3935 127.963 43.8037L130.52 44.5114C130.251 45.3666 129.798 46.1186 129.163 46.7674C128.528 47.4088 127.743 47.9101 126.809 48.2714C125.874 48.6253 124.824 48.8022 123.658 48.8022Z" fill="#2E7C80"/>
<path d="M145.424 35.2663L143.047 35.9298C142.898 35.5391 142.677 35.1594 142.386 34.7908C142.102 34.4148 141.713 34.1051 141.22 33.8619C140.726 33.6186 140.095 33.4969 139.325 33.4969C138.271 33.4969 137.393 33.7365 136.69 34.2157C135.995 34.6876 135.648 35.2884 135.648 36.0183C135.648 36.6671 135.887 37.1795 136.365 37.5555C136.843 37.9315 137.591 38.2448 138.607 38.4955L141.164 39.1148C142.703 39.4834 143.851 40.0474 144.606 40.8067C145.361 41.5587 145.738 42.5282 145.738 43.7152C145.738 44.6884 145.454 45.5583 144.886 46.3251C144.325 47.0918 143.541 47.6963 142.532 48.1387C141.522 48.581 140.349 48.8022 139.011 48.8022C137.255 48.8022 135.801 48.4262 134.65 47.6742C133.499 46.9222 132.77 45.8237 132.463 44.3787L134.975 43.7594C135.214 44.6736 135.666 45.3593 136.331 45.8164C137.004 46.2734 137.882 46.502 138.966 46.502C140.2 46.502 141.179 46.244 141.904 45.7279C142.636 45.2044 143.002 44.5778 143.002 43.8479C143.002 43.2581 142.793 42.7641 142.375 42.366C141.956 41.9605 141.313 41.6583 140.446 41.4592L137.576 40.7957C135.999 40.4271 134.84 39.8557 134.1 39.0816C133.368 38.3001 133.002 37.3232 133.002 36.151C133.002 35.1926 133.274 34.3448 133.82 33.6075C134.373 32.8703 135.124 32.2915 136.074 31.8713C137.03 31.4511 138.114 31.2409 139.325 31.2409C141.029 31.2409 142.367 31.6096 143.339 32.3468C144.318 33.0841 145.013 34.0572 145.424 35.2663Z" fill="#2E7C80"/>
</g>
<defs>
<filter id="filter0_d_50_127" x="0.61084" y="0" width="149.127" height="57.5874" filterUnits="userSpaceOnUse" color-interpolation-filters="sRGB">
<feFlood flood-opacity="0" result="BackgroundImageFix"/>
<feColorMatrix in="SourceAlpha" type="matrix" values="0 0 0 0 0 0 0 0 0 0 0 0 0 0 0 0 0 0 127 0" result="hardAlpha"/>
<feOffset dy="4"/>
<feGaussianBlur stdDeviation="2"/>
<feComposite in2="hardAlpha" operator="out"/>
<feColorMatrix type="matrix" values="0 0 0 0 0.63125 0 0 0 0 0.841667 0 0 0 0 0.677541 0 0 0 0.25 0"/>
<feBlend mode="normal" in2="BackgroundImageFix" result="effect1_dropShadow_50_127"/>
<feBlend mode="normal" in="SourceGraphic" in2="effect1_dropShadow_50_127" result="shape"/>
</filter>
</defs>
</svg>
